<svg width="426" height="426" viewBox="0 0 426 426" fill="none" xmlns="http://www.w3.org/2000/svg">
<rect x="5" y="5" width="416" height="416" rx="10" stroke="white" stroke-width="10"/>
<rect x="107" y="94" width="230" height="250" rx="90" fill="#2168E1" stroke="#2168E1" stroke-width="20"/>
<path d="M199.172 235.125L197.766 237.938L196.359 240.891L190.594 236.531L192 233.578C194.344 228.797 196.266 224.016 197.766 219.234C199.359 214.359 200.625 209.812 201.562 205.594C202.594 201.375 203.438 197.672 204.094 194.484C204.75 191.297 205.406 189 206.062 187.594C206.625 186.469 207.422 185.578 208.453 184.922C209.578 184.172 210.703 183.562 211.828 183.094C213.047 182.625 214.172 182.297 215.203 182.109C216.328 181.922 217.125 181.828 217.594 181.828C219.656 181.828 221.016 182.25 221.672 183.094C222.422 183.938 222.797 185.438 222.797 187.594C222.797 188.625 222.562 191.203 222.094 195.328C221.719 199.359 221.25 204.469 220.688 210.656C220.219 216.75 219.75 223.641 219.281 231.328C218.906 238.922 218.719 246.797 218.719 254.953C218.719 260.859 219 265.547 219.562 269.016C220.125 272.391 220.828 274.922 221.672 276.609C222.609 278.297 223.594 279.375 224.625 279.844C225.75 280.312 226.875 280.547 228 280.547C229.5 280.547 231.188 279.891 233.062 278.578C234.938 277.266 237.141 274.969 239.672 271.688C242.203 268.312 245.109 263.812 248.391 258.188C251.672 252.469 255.516 245.25 259.922 236.531L261.469 233.578L267.234 237.938L265.688 240.891C262.125 247.828 258.562 254.672 255 261.422C251.531 268.172 247.969 274.172 244.312 279.422C240.75 284.672 237.141 288.938 233.484 292.219C229.828 295.406 226.172 297 222.516 297C218.672 297 215.344 296.25 212.531 294.75C209.812 293.156 207.516 290.578 205.641 287.016C203.859 283.453 202.5 278.766 201.562 272.953C200.719 267.047 200.297 259.781 200.297 251.156C200.297 248.719 200.297 246.188 200.297 243.562C200.297 240.844 200.391 238.031 200.578 235.125H199.172ZM228 153C228 156.281 226.875 159.047 224.625 161.297C222.469 163.453 219.75 164.531 216.469 164.531C213.281 164.531 210.562 163.453 208.312 161.297C206.062 159.047 204.938 156.281 204.938 153C204.938 149.812 206.062 147.094 208.312 144.844C210.562 142.594 213.281 141.469 216.469 141.469C219.75 141.469 222.469 142.594 224.625 144.844C226.875 147.094 228 149.812 228 153Z" fill="white"/>
</svg>
