<svg width="426" height="426" viewBox="0 0 426 426" fill="none" xmlns="http://www.w3.org/2000/svg">
<rect x="5" y="5" width="416" height="416" rx="10" stroke="white" stroke-width="10"/>
<path d="M310 214.5C310 265.136 269.157 306 219 306C168.843 306 128 265.136 128 214.5C128 163.864 168.843 123 219 123C269.157 123 310 163.864 310 214.5Z" stroke="#2168E1" stroke-width="50"/>
<rect x="245" y="373" width="49.2308" height="47.5616" rx="13" transform="rotate(-180 245 373)" fill="#2168E1"/>
<path d="M221 363.658L186.359 324.164H255.641L221 363.658Z" fill="#2168E1"/>
<rect x="196" y="57" width="49.2308" height="47.5616" rx="13" fill="#2168E1"/>
<path d="M220 66.3425L254.641 105.836H185.359L220 66.3425Z" fill="#2168E1"/>
<rect x="64" y="238" width="49.2308" height="46.7945" rx="13" transform="rotate(-90 64 238)" fill="#2168E1"/>
<path d="M73.1919 214L112.048 179.359V248.641L73.1919 214Z" fill="#2168E1"/>
<rect x="374" y="191" width="49.2308" height="46.7945" rx="13" transform="rotate(90 374 191)" fill="#2168E1"/>
<path d="M364.808 215L325.952 249.641V180.359L364.808 215Z" fill="#2168E1"/>
<rect x="314.094" y="89.8995" width="43.0769" height="43.6065" rx="13" transform="rotate(45 314.094 89.8995)" fill="#2168E1"/>
<path d="M322.887 110.805L318.716 157.842L275.85 114.976L322.887 110.805Z" fill="#2168E1"/>
<rect x="93.8994" y="119.598" width="43.0769" height="43.6065" rx="13" transform="rotate(-45 93.8994 119.598)" fill="#2168E1"/>
<path d="M114.806 110.805L161.842 114.976L118.976 157.842L114.806 110.805Z" fill="#2168E1"/>
<rect x="123.598" y="340.793" width="43.0769" height="43.6065" rx="13" transform="rotate(-135 123.598 340.793)" fill="#2168E1"/>
<path d="M114.806 319.887L118.976 272.85L161.842 315.716L114.806 319.887Z" fill="#2168E1"/>
<rect x="343.793" y="311.094" width="43.0769" height="43.6065" rx="13" transform="rotate(135 343.793 311.094)" fill="#2168E1"/>
<path d="M322.887 319.887L275.85 315.716L318.716 272.85L322.887 319.887Z" fill="#2168E1"/>
</svg>
